<svg width="24" height="24" viewBox="0 0 24 24" xmlns="http://www.w3.org/2000/svg">
    <path d="M10.39 2.69C12.258 3.353 15 5 16 7l-2.237.993.034.082c.45 1.173.428 2.499-.047 3.925.475 1.426.496 2.752.047 3.925l-.034.082L16 17c-1 2-3.742 3.646-5.61 4.31l-.838-2.355.333-.124a8.612 8.612 0 0 0 1.76-.93l.086-.061-1.789-.797 1.074-1.272c.57-.676.746-1.482.496-2.521H6.517l-1.633 1.634-1.768-1.768L4.233 12l-1.117-1.116 1.768-1.768 1.633 1.633h4.995c.25-1.039.074-1.845-.496-2.52L9.942 6.957l1.79-.797-.086-.062a8.612 8.612 0 0 0-1.761-.929l-.333-.124.838-2.356zm6.39 5.934L21 12l-4.22 3.376-1.562-1.952L16.998 12l-1.78-1.424 1.562-1.952z" fill="#9AA4AF" fill-rule="nonzero"/>
</svg>
