<svg xmlns="http://www.w3.org/2000/svg" xmlns:xlink="http://www.w3.org/1999/xlink" viewBox="0 0 1024 1024"><defs><style>.cls-1{fill:#fff;fill-opacity:0;}.cls-2{fill:#47b0f1;opacity:0.05;}.cls-2,.cls-23,.cls-3,.cls-4{isolation:isolate;}.cls-3,.cls-4{opacity:0.1;}.cls-3{fill:url(#未命名的渐变_28);}.cls-4{fill:url(#未命名的渐变_28-2);}.cls-5{fill:url(#未命名的渐变_3);}.cls-6{fill:url(#未命名的渐变_28-3);}.cls-7{fill:url(#未命名的渐变_28-4);}.cls-8{fill:url(#未命名的渐变_28-5);}.cls-9{fill:url(#未命名的渐变_28-6);}.cls-10{fill:url(#未命名的渐变_28-7);}.cls-11{fill:url(#未命名的渐变_13);}.cls-12{fill:url(#未命名的渐变_28-8);}.cls-13{fill:url(#未命名的渐变_13-2);}.cls-14{fill:url(#未命名的渐变_28-9);}.cls-15{fill:url(#未命名的渐变_13-3);}.cls-16{fill:url(#未命名的渐变_28-10);}.cls-17{fill:url(#未命名的渐变_28-11);}.cls-18{fill:url(#未命名的渐变_28-12);}.cls-19{fill:url(#未命名的渐变_28-13);}.cls-20{fill:url(#未命名的渐变_28-14);}.cls-21{fill:none;stroke-dasharray:2;stroke:url(#未命名的渐变_19);}.cls-22{fill:url(#未命名的渐变_28-15);}.cls-23{opacity:0.4;fill:url(#未命名的渐变_21);}.cls-24{fill:url(#未命名的渐变_28-16);}.cls-25{fill:url(#未命名的渐变_28-17);}.cls-26{fill:url(#未命名的渐变_35);}.cls-27{fill:url(#未命名的渐变_28-18);}.cls-28{fill:url(#未命名的渐变_34);}.cls-29{fill:url(#未命名的渐变_28-19);}.cls-30{fill:url(#未命名的渐变_28-20);}.cls-31{fill:#ebb0b0;}.cls-32{fill:#131322;}.cls-33{fill:#333;}.cls-34{fill:url(#未命名的渐变_30);}.cls-35{fill:url(#未命名的渐变_30-2);}.cls-36{fill:url(#未命名的渐变_31);}.cls-37{fill-rule:evenodd;}.cls-38{fill:#efba9e;}.cls-39{fill:url(#未命名的渐变_32);}</style><linearGradient id="未命名的渐变_28" x1="212.14" y1="933.32" x2="212.78" y2="933.35" gradientTransform="matrix(124, 0, 0, -46, -26252, 43255.93)" gradientUnits="userSpaceOnUse"><stop offset="0" stop-color="#98d6fa"></stop><stop offset="1" stop-color="#47b0f1"></stop></linearGradient><linearGradient id="未命名的渐变_28-2" x1="212.14" y1="933.32" x2="212.78" y2="933.35" gradientTransform="matrix(124, 0, 0, -46, -25552, 43085.93)" xlink:href="#未命名的渐变_28"></linearGradient><linearGradient id="未命名的渐变_3" x1="213.77" y1="931.76" x2="214.77" y2="931.76" gradientTransform="matrix(930, 0, 0, -246, -198744, 230046.9)" gradientUnits="userSpaceOnUse"><stop offset="0" stop-color="#fff5de"></stop><stop offset="1" stop-color="#fbd2ac"></stop></linearGradient><linearGradient id="未命名的渐变_28-3" x1="211.01" y1="934.89" x2="211.64" y2="934.91" gradientTransform="matrix(74.87, 0, 0, -25.58, -15158.72, 24124.51)" xlink:href="#未命名的渐变_28"></linearGradient><linearGradient id="未命名的渐变_28-4" x1="209.74" y1="936.45" x2="210.38" y2="936.47" gradientTransform="matrix(51.89, 0, 0, -17.72, -10147.3, 16802.7)" xlink:href="#未命名的渐变_28"></linearGradient><linearGradient id="未命名的渐变_28-5" x1="209.74" y1="936.45" x2="210.38" y2="936.47" gradientTransform="matrix(51.89, 0, 0, -17.72, -10182.09, 16768.22)" xlink:href="#未命名的渐变_28"></linearGradient><linearGradient id="未命名的渐变_28-6" x1="207.92" y1="938.7" x2="208.55" y2="938.72" gradientTransform="matrix(35.97, 0, 0, -12.29, -6661.82, 11746.33)" xlink:href="#未命名的渐变_28"></linearGradient><linearGradient id="未命名的渐变_28-7" x1="213.04" y1="931.65" x2="213.68" y2="931.72" gradientTransform="matrix(269.22, 47.47, 27.01, -153.15, -82548.68, 133303.42)" xlink:href="#未命名的渐变_28"></linearGradient><linearGradient id="未命名的渐变_13" x1="213.03" y1="932.64" x2="213.21" y2="932.57" gradientTransform="matrix(50.26, -50.26, -135.69, -135.69, 115943.22, 138005.55)" gradientUnits="userSpaceOnUse"><stop offset="0.03" stop-color="#afdef9"></stop><stop offset="1" stop-color="#7cc9f9"></stop></linearGradient><linearGradient id="未命名的渐变_28-8" x1="213.04" y1="931.63" x2="213.58" y2="931.87" gradientTransform="matrix(203.58, 0, 0, -216.82, -43307.04, 202734.68)" xlink:href="#未命名的渐变_28"></linearGradient><linearGradient id="未命名的渐变_13-2" x1="212.15" y1="932.39" x2="212.28" y2="932.32" gradientTransform="matrix(64.64, -31.53, -95, -194.77, 74960.15, 188980.58)" xlink:href="#未命名的渐变_13"></linearGradient><linearGradient id="未命名的渐变_28-9" x1="212.43" y1="931.36" x2="212.65" y2="931.93" gradientTransform="matrix(110.66, 0, 0, -242.94, -23297.23, 227077.49)" xlink:href="#未命名的渐变_28"></linearGradient><linearGradient id="未命名的渐变_13-3" x1="211.26" y1="931.99" x2="211.43" y2="931.92" gradientTransform="matrix(71.08, 0, 0, -191.9, -14806.25, 179556.25)" xlink:href="#未命名的渐变_13"></linearGradient><linearGradient id="未命名的渐变_28-10" x1="209.44" y1="933.56" x2="209.04" y2="934.33" gradientTransform="matrix(40.38, 0, 0, -36.25, -7511.81, 34624.73)" xlink:href="#未命名的渐变_28"></linearGradient><linearGradient id="未命名的渐变_28-11" x1="208.91" y1="932.9" x2="209.47" y2="933.41" gradientTransform="matrix(40.64, 0, 0, -50, -7550.77, 47422.49)" xlink:href="#未命名的渐变_28"></linearGradient><linearGradient id="未命名的渐变_28-12" x1="209.46" y1="933.63" x2="210.31" y2="933.93" gradientTransform="matrix(46.95, 0, 0, -36.71, -8879.84, 35053.15)" xlink:href="#未命名的渐变_28"></linearGradient><linearGradient id="未命名的渐变_28-13" x1="210.5" y1="933.26" x2="211.35" y2="933.52" gradientTransform="matrix(61, 0, 0, -44, -11944, 41851.15)" xlink:href="#未命名的渐变_28"></linearGradient><linearGradient id="未命名的渐变_28-14" x1="208.38" y1="934.55" x2="209.23" y2="934.8" gradientTransform="matrix(38, 0, 0, -27, -6977, 26026.03)" xlink:href="#未命名的渐变_28"></linearGradient><linearGradient id="未命名的渐变_19" x1="212.45" y1="932.6" x2="213.2" y2="931.48" gradientTransform="matrix(147, 0, 0, -193, -30964.01, 180363.74)" gradientUnits="userSpaceOnUse"><stop offset="0" stop-color="#47b0f1"></stop><stop offset="1" stop-color="#98d6fa"></stop></linearGradient><linearGradient id="未命名的渐变_28-15" x1="217.6" y1="935.69" x2="216.6" y2="934.47" gradientTransform="translate(37296.44 36527.24) rotate(148) scale(56.53 53.76)" xlink:href="#未命名的渐变_28"></linearGradient><linearGradient id="未命名的渐变_21" x1="214.44" y1="932.12" x2="215.44" y2="932.12" gradientTransform="matrix(-474.84, 33.2, -9.98, -142.65, 111928.37, 126624.6)" gradientUnits="userSpaceOnUse"><stop offset="0" stop-color="#f5dda7"></stop><stop offset="1" stop-color="#fa9a41"></stop></linearGradient><linearGradient id="未命名的渐变_28-16" x1="213.71" y1="932.95" x2="214.63" y2="932.96" gradientTransform="matrix(374.91, 0, 0, -57.56, -79572.72, 54484.26)" xlink:href="#未命名的渐变_28"></linearGradient><linearGradient id="未命名的渐变_28-17" x1="212.84" y1="932.08" x2="213.34" y2="931.69" gradientTransform="matrix(153.49, 0, 0, -194.81, -32049.98, 182205.04)" xlink:href="#未命名的渐变_28"></linearGradient><linearGradient id="未命名的渐变_35" x1="212.42" y1="931.87" x2="213.39" y2="931.55" gradientTransform="matrix(138.73, 0, 0, -237.61, -29030.36, 222066.33)" gradientUnits="userSpaceOnUse"><stop offset="0" stop-color="#98d6fa"></stop><stop offset="0.91" stop-color="#47b0f1"></stop></linearGradient><linearGradient id="未命名的渐变_28-18" x1="213.6" y1="932.91" x2="214.18" y2="932.86" gradientTransform="matrix(374.87, 0, 0, -60.51, -79563.89, 57001.74)" xlink:href="#未命名的渐变_28"></linearGradient><linearGradient id="未命名的渐变_34" x1="212.15" y1="931.85" x2="213.12" y2="931.55" gradientTransform="matrix(129.88, 0, 0, -290.74, -26890.36, 271556.47)" gradientUnits="userSpaceOnUse"><stop offset="0.13" stop-color="#98d6fa"></stop><stop offset="0.22" stop-color="#8acff8"></stop><stop offset="0.5" stop-color="#66bef4"></stop><stop offset="0.72" stop-color="#4fb4f2"></stop><stop offset="0.86" stop-color="#47b0f1"></stop></linearGradient><linearGradient id="未命名的渐变_28-19" x1="213.07" y1="932.33" x2="214.07" y2="932.26" gradientTransform="matrix(270.08, 0, 0, -100.36, -57138.17, 94059.21)" xlink:href="#未命名的渐变_28"></linearGradient><linearGradient id="未命名的渐变_28-20" x1="213.54" y1="933.34" x2="214.46" y2="933.35" gradientTransform="matrix(288.16, 0, 0, -46.1, -61049.57, 43832.91)" xlink:href="#未命名的渐变_28"></linearGradient><linearGradient id="未命名的渐变_30" x1="213.43" y1="932.18" x2="212.57" y2="932.18" gradientTransform="matrix(149.72, 0, 0, -114.51, -31354.55, 107484.93)" gradientUnits="userSpaceOnUse"><stop offset="0" stop-color="#923629"></stop><stop offset="0.3" stop-color="#57352c"></stop><stop offset="0.5" stop-color="#42352c"></stop><stop offset="0.7" stop-color="#2c2422"></stop><stop offset="1" stop-color="#1d181c"></stop></linearGradient><linearGradient id="未命名的渐变_30-2" x1="213.32" y1="933.53" x2="212.46" y2="933.53" gradientTransform="matrix(139.03, 0, 0, -42.05, -29025.89, 40054.67)" xlink:href="#未命名的渐变_30"></linearGradient><linearGradient id="未命名的渐变_31" x1="212.75" y1="932.02" x2="211.76" y2="932.02" gradientTransform="matrix(95.2, 0, 0, -143.07, -19564.22, 134085.2)" gradientUnits="userSpaceOnUse"><stop offset="0" stop-color="#f97b61"></stop><stop offset="1" stop-color="#ffb859"></stop></linearGradient><linearGradient id="未命名的渐变_32" x1="216.28" y1="931.17" x2="217.72" y2="930.69" gradientTransform="translate(-17289.32 72227.94) rotate(-150) scale(93.34 76.15)" gradientUnits="userSpaceOnUse"><stop offset="0" stop-color="#ffb859"></stop><stop offset="1" stop-color="#f97b61"></stop></linearGradient></defs><g id="图层_2"><g id="图层_1-2"><g id="暂无数据"><rect id="矩形" class="cls-1" width="1024" height="1024"></rect><g id="背景"><path id="路径-58" class="cls-2" d="M76.8,581.77c-7.68-33.1-57.62-248.62,83.6-278.26s224.65,4.88,286.7-55.46,77.52-50.44,128.49-46.45S685.63,162,705.47,149,904.53,51.69,950.35,303.51c7.24,108.87,13.26,227-37.44,271.73s.93,84.91,37.44,89.38S933.28,745.53,849,778.9C792.88,804.06,430.19,876.18,213,802,108.11,757.12,84.47,614.86,76.8,581.77Z"></path><path id="形状结合" class="cls-3" d="M158,329v.15a7.51,7.51,0,0,1,6,7.35v1a7.5,7.5,0,0,1-7.5,7.5h-79a7.5,7.5,0,0,1-7.5-7.5v-1a7.5,7.5,0,0,1,7.5-7.5H109a7,7,0,0,0,7-6.76V322a7,7,0,0,0-6.76-7H106v-.15a7.5,7.5,0,0,1-6-7.35v-1a7.5,7.5,0,0,1,7.5-7.5h79a7.5,7.5,0,0,1,7.5,7.5v1a7.5,7.5,0,0,1-7.5,7.5H155a7,7,0,0,0-7,6.76V322a7,7,0,0,0,6.76,7H158Z"></path><path id="形状结合-2" class="cls-4" d="M858,159v.15a7.51,7.51,0,0,1,6,7.35v1a7.5,7.5,0,0,1-7.5,7.5h-79a7.5,7.5,0,0,1-7.5-7.5v-1a7.5,7.5,0,0,1,7.5-7.5H809a7,7,0,0,0,7-6.76V152a7,7,0,0,0-6.76-7H806v-.15a7.5,7.5,0,0,1-6-7.35v-1a7.5,7.5,0,0,1,7.5-7.5h79a7.5,7.5,0,0,1,7.5,7.5v1a7.5,7.5,0,0,1-7.5,7.5H855a7,7,0,0,0-7,6.76V152a7,7,0,0,0,6.76,7H858Z"></path><path id="形状结合-3" class="cls-5" d="M514.52,712c131.1,0,249.26,10.79,331.78,28,80.76.65,145.7,25,145.7,55,0,24.23-42.45,44.8-101.39,52.13-13,3.75-27.41,7.3-43.16,10.62A35.34,35.34,0,0,1,848,864c0,51.91-112.82,94-252,94-124.65,0-228.17-33.76-248.41-78.11C180.2,867.13,62,835.72,62,799,62,751,264.37,712,514.52,712Z"></path><g id="大雁"><path id="路径" class="cls-6" d="M686.61,226.65v-.1c-5.33-15-22.7-22.11-37.44-19.93,10.93-6.79,29-8.6,37.44,1.82v.09c8.46-10.33,26.59-8.61,37.43-1.82-14.72-2.08-32.09,5-37.43,19.93Z"></path><path id="路径-2" class="cls-7" d="M770,214.11V214c-3.7-10.42-15.73-15.31-25.94-13.81,7.57-4.71,20.07-6,25.94,1.26v.06c5.87-7.16,18.44-6,26-1.26-10.21-1.44-22.24,3.46-26,13.82Z"></path><path id="路径-3" class="cls-8" d="M735.24,179.63v-.06c-3.7-10.43-15.73-15.32-26-13.82,7.58-4.71,20.08-6,26,1.26v.06c5.87-7.15,18.43-6,26-1.25-10.22-1.45-22.24,3.45-26,13.81Z"></path><path id="路径-4" class="cls-9" d="M840.72,220.07v0c-2.56-7.23-10.9-10.63-18-9.58,5.25-3.26,13.91-4.14,18,.87v0c4.08-5,12.78-4.13,18-.87C851.63,209.49,843.29,212.89,840.72,220.07Z"></path></g><g id="绿植"><path id="路径-61" class="cls-10" d="M54.17,676.4q-49-22-44,21.64Q13,711.59,20.37,715q19.26,23.47,20.37,37.62c1.11,14.14,12.11,30.16,39.66,21q27.55-9.17,37.84,30.68,31.06,41.16,109.13,32.89t-9.93-72q-23.92-9.45-36.54-11.67T168.54,726q0-15.83-22.92-23.11t-19.2-23.14q-15.23-22.43-36.34-6.41T54.17,676.4Z"></path><path id="形状结合-4" class="cls-11" d="M52.64,691.51l48.27,32.22q-3.69-19.38-8.82-31.4c-5.07-11.87,10.59,19.79,10.8,32.72l40.24,26.86-.11-.16q1.66-25.93-1.34-36.2c2.69,3.59,5.56,29.37,4,38l37,24.7c-.21-.24-.34-.41-.34-.41s1.91-14.28.22-21.47c1.67,2,2.79,17,2.3,23.34l30.55,20.39L211.52,804,180,781.68c-8.52,5-20.21,5.79-25.86,5.26q15.67-1.43,22.9-7.19a12.89,12.89,0,0,0,2.5,1.6L90.7,718.45c.2.23.38.45.56.69q-19.74,2.79-35.44-2.38c.84-1.67,14.75,4.83,33.11.45ZM94,768.36q15.81.46,41.17-18.27a23.15,23.15,0,0,0,2.22,2.22C121.39,764.93,104.24,769.9,94,768.36Z"></path><path id="路径-65" class="cls-12" d="M89.57,607.28q-48.25-32.84-44.78,16.51C51,647.36,55,663.12,53,677.56s4.31,41.75,36.56,53q32.25,11.21,18.12,31.79-7.09,31.62,78.22,45.38c85.33,13.76,65-17.87,43.06-52.16-15.87-15.88-18-25.58-18-37.72s11.61-32-21.76-40.24q-22-5-23.06-44-3.45-19.59-42-9.8Q107.06,627.09,89.57,607.28Z"></path><path id="形状结合-5" class="cls-13" d="M74.94,624.74l35.44,45.06.07-.17a44.7,44.7,0,0,0,2.35-28.28l-.08-.31v0c2.34,7.27,6.81,15.94-.61,30.93l30,38.18.19-.27q9-12.72,9-33.46c1.38,4.3,1.41,24-7.16,36.27l26.61,33.82c1.68-2.61,5.88-9.95,5.88-18.15.89,5.65,1,13.22-3.89,20.68L212,799h-6.23l-38-50.55c-18.38,7.84-28.7,4.56-33.81,2.25q15,3.66,31.72-5l-28.87-38.44c.16.29.32.6.5.91-19.21,6.73-39.15,7.53-48.36,2.74q14.79,5.58,47-5.56l-.43.15-32.17-42.84c.07.18.13.35.18.52q-21.19,1.3-33.84-13.49c1.34-1.3,10.35,11.81,32.14,11Z"></path><path id="路径-96" class="cls-14" d="M199.2,608.75q18.63-25.89,33.35,5.26c4.76,17.94-2.75,29.34,21.82,37.5q24.58,8.16,7.44,34.15-7.15,16.35,10.58,20.91t-4.27,36.22q-7.62,17.36,0,23.2c7.63,5.83,22.28,23.35,4.27,57.39s-60.46,7.6-66.83-8.4,6.37-38.06,0-49S162.1,751.28,172,718.47c8.25-13.43,19.74-17.31,8.21-40.16s-14.46-13.68,0-36.19Q189.69,632.42,199.2,608.75Z"></path><path id="形状结合-6" class="cls-15" d="M216.11,638.51l11.35,56.91q11.08-16.29,16-28.43c4.81-12-6.5,21.48-15.5,30.77l9.46,47.45a1.06,1.06,0,0,1,0-.19q19.52-17.16,24.65-26.55c-.64,4.44-16.85,24.7-24.1,29.7l8.71,43.64,0-.53s11.44-8.75,15.34-15c-.25,2.62-10,14-14.88,18.14l7.18,36H248.9l-6.51-38.09c-9.59-2.46-18.39-10.19-22-14.56q12.09,10.07,21.28,11.11a13,13,0,0,0,.63,2.89L224,684.47a6.4,6.4,0,0,1-.09.88q-15.93-12-23.37-26.74c1.77-.58,7,13.85,23.1,23.73ZM191,722.08q10.84,11.5,42,16.19a23.39,23.39,0,0,0,0,3.14C212.8,739,197.16,730.42,191,722.08Z"></path></g><g id="石头"><path id="路径-38" class="cls-16" d="M938.4,787.52q4.35-33.32-22.4-35.89c24.14-2.3,40.12,12.39,40.38,35.89Q948.88,787.78,938.4,787.52Z"></path><path id="路径-39" class="cls-17" d="M950.12,787.65Q957.19,754,932.73,738c20.82,6.57,35.78,16.44,40.64,49.65A190.3,190.3,0,0,1,950.12,787.65Z"></path><path id="路径-40" class="cls-18" d="M977.07,788q-3.14-31.95,22.93-36.61c-16.11-.4-34.09-1.48-47,36.61Q969.4,787.47,977.07,788Z"></path><path id="椭圆形" class="cls-19" d="M927.41,802c16.85,0,29.59.41,29.59-15.39S943.34,758,926.5,758,896,770.81,896,786.61,910.57,802,927.41,802Z"></path><path id="椭圆形备份-6" class="cls-20" d="M960.57,802c10.49,0,18.43.25,18.43-9.44S970.49,775,960,775s-19,7.86-19,17.56S950.07,802,960.57,802Z"></path></g></g><g id="飞机"><path id="路径-33" class="cls-21" d="M304.19,419Q433,441.83,364.67,482.71c-68.33,40.88-132.7,71.35-34.1,109.11Q364.38,603.71,427,612"></path><polygon id="路径-5" class="cls-22" points="272.67 412.44 262.37 424.38 226.78 391.16 292.59 389.8 283.7 400.86 235.83 393.87 279.45 406.11 287.93 416.34 272.67 412.44"></polygon></g><path id="路径-6" class="cls-23" d="M367,784.78c40.79,10.1,23.34,15.08,8.66,20-26.95,9.09-16.57,17.9-4.58,26.06,17.76,12.09,158.17,43.75,317.69,24,148.74-18.42,132.13-58.79,97.1-77.81-28.23-15.29-155.33-51.57-306.67-48.32-91.07,1.94-131.36,11.61-140,19.63C324.88,761.64,321.58,773.53,367,784.78Z"></path><g id="盒子"><polygon id="路径-68" class="cls-24" points="444.09 783.72 581.64 755.93 819 769.42 689.47 813.49 444.09 783.72"></polygon><polygon id="路径-69" class="cls-25" points="582.82 582.5 582.82 755.58 736.31 764.79 736.03 569.97 582.82 582.5"></polygon><polygon id="路径-70" class="cls-26" points="444.09 546.36 444.09 783.97 582.82 755.29 582.82 583.21 444.09 546.36"></polygon><polygon id="路径-71" class="cls-27" points="444.09 546.69 688.11 522.75 818.96 564.46 582.64 583.25 444.09 546.69"></polygon><polygon id="路径-72" class="cls-28" points="692.24 524.22 689.08 814.97 818.96 769.48 818.96 562.36 692.24 524.22"></polygon><polygon id="路径-73" class="cls-29" points="445.57 546.36 460.98 487.02 715.65 446 692.88 524.67 445.57 546.36"></polygon><polygon id="路径-74" class="cls-30" points="444.86 783.97 402.4 797.75 622.8 830.07 690.56 812.52 444.86 783.97"></polygon></g><g id="人物"><g id="编组"><path id="路径-7" class="cls-31" d="M680.92,666.24c-2.56-5-3.14-12.31-1.31-15.89s8.08-22.59-6.49-29.44-27.48,4.94-26.23,20,2.06,23.46,6,24.34,5,6.15,5.61,9.36,18.12-4.45,18.12-4.45l4.06-1Z"></path><path id="路径-8" class="cls-32" d="M655.51,605.76c-15,.66-13.63,13.64-10.26,20.73s3.77,4.86,8.94,8.75c0,0,1-1.29,1.65,8.29l2.57,1.07c1,.34-.23-2,1.28-3.11s5.93,2.34,3.74,6.39-2.07,2.86-2.07,2.86,3.38,4.58,5.63,4,14.56-.38,15.44-4.12,5.19-7.82,5.3-18-10.54-21-17.05-23.53S659.24,605.6,655.51,605.76Z"></path></g><path id="路径-9" class="cls-33" d="M483.41,789.92c1.22,4.41,2.87,6.29,2.09,8.85s-6.1,6.31-9.42,5.76c-4.21-.7-11.4-2.38-13.43-2.8s-15.93-3.73-17.56-8,4.81-7.64,13.78-7.08,21.81,2.44,21.81,2.44Z"></path><path id="路径备份" class="cls-33" d="M519.64,792.54c1,3.48,2.26,5,1.65,7s-4.81,5-7.44,4.55c-3.32-.56-9-1.88-10.6-2.22s-12.58-2.94-13.86-6.31,3.79-6,10.88-5.59,17.22,1.93,17.22,1.93Z"></path><path id="_Path_" class="cls-34" d="M573.38,783.3c-9.48-7.71-16.27-19.87-25.12-52.89-2.8,6.78-24.5,24.28-66.13,68.56l-11.57-5.75c24.29-69.81,53.64-97.73,73.79-107.56,23.44-9.28,47.47,37.75,50.42,44.75q3,7,25.51,48.21C599,788.4,581.39,789.84,573.38,783.3Z"></path><path id="_Path_2" class="cls-35" d="M650.87,805.23q-54.33,14.09-76.81,15.19c-22.49,1.1-57.94-4.35-62.22-17.11q5-9.36,9-10.09c4-.74,22.12,3.46,43.79-6.12q21.75-9.58,55.66-8.48"></path><path id="_Path_3" class="cls-36" d="M601.26,778.51c-10.47-17.55-6.93-26.06-5.46-32.1q3.24-18.85,16.88-39c13-18,17.84-22.94,35.16-33,9.73-5.66,39.81-23.81,41,21,1.38,48,1.38,83.11-41,113.62C635.17,807,611.8,796,601.26,778.51Z"></path><polygon id="矩形-2" class="cls-37" points="559.61 661.87 583.39 687.37 580.84 689.75 557.06 664.24 559.61 661.87"></polygon><path id="路径-50备份" class="cls-38" d="M585.35,692c-1.33-2.23-2.74-4.54-4.25-6.94a11.54,11.54,0,0,0-1.4-3.54q-2.75-3.13-3.49-1.7a3.23,3.23,0,0,0,.07,3.09l-3.3-3.18-2.47-4q-4-6.27-6.89-1.5c-1.44,4-.11,10.25,7.5,14.64q3.2.78,7,4.91Z"></path><path id="路径-3-2" class="cls-39" d="M582.27,685,613.33,723l34.55-35.55q11-8.16,21.87.42c4.13,5.82,6.28,12.88,0,24.72C666,718.13,647,731.5,627.53,741.71c-7.89,3.14-16.26,2-24.1-5.65q-5.71-6.55-29.39-44.39Z"></path></g></g></g></g></svg>