<svg width="1024px" height="1024px" viewBox="0 0 1024 1024" version="1.1" xmlns="http://www.w3.org/2000/svg" xmlns:xlink="http://www.w3.org/1999/xlink">
    <title>暂无消息</title>
    <defs>
        <linearGradient x1="-13.5823507%" y1="50%" x2="50%" y2="47.2031971%" id="linearGradient-1">
            <stop stop-color="#98D6FA" offset="0%"></stop>
            <stop stop-color="#47B0F1" offset="100%"></stop>
        </linearGradient>
        <linearGradient x1="-9.33772794e-14%" y1="-3.10559006%" x2="100%" y2="-3.10559006%" id="linearGradient-2">
            <stop stop-color="#FFF5DE" offset="0%"></stop>
            <stop stop-color="#FBD2AC" offset="100%"></stop>
        </linearGradient>
        <linearGradient x1="-13.5823507%" y1="50%" x2="50%" y2="47.6284444%" id="linearGradient-3">
            <stop stop-color="#98D6FA" offset="0%"></stop>
            <stop stop-color="#47B0F1" offset="100%"></stop>
        </linearGradient>
        <linearGradient x1="-13.5823507%" y1="50%" x2="50%" y2="47.629463%" id="linearGradient-4">
            <stop stop-color="#98D6FA" offset="0%"></stop>
            <stop stop-color="#47B0F1" offset="100%"></stop>
        </linearGradient>
        <linearGradient x1="-13.5823507%" y1="50%" x2="50%" y2="47.6298828%" id="linearGradient-5">
            <stop stop-color="#98D6FA" offset="0%"></stop>
            <stop stop-color="#47B0F1" offset="100%"></stop>
        </linearGradient>
        <linearGradient x1="-13.5823507%" y1="50%" x2="50%" y2="43.4230204%" id="linearGradient-6">
            <stop stop-color="#98D6FA" offset="0%"></stop>
            <stop stop-color="#47B0F1" offset="100%"></stop>
        </linearGradient>
        <linearGradient x1="43.1398925%" y1="-6.4516129%" x2="60.3365636%" y2="0%" id="linearGradient-7">
            <stop stop-color="#AFDEF9" offset="3.15726754%"></stop>
            <stop stop-color="#7CC9F9" offset="100%"></stop>
        </linearGradient>
        <linearGradient x1="5.92025809%" y1="60.8571499%" x2="59.966368%" y2="37.0542203%" id="linearGradient-8">
            <stop stop-color="#98D6FA" offset="0%"></stop>
            <stop stop-color="#47B0F1" offset="100%"></stop>
        </linearGradient>
        <linearGradient x1="44.4926371%" y1="-6.4516129%" x2="58.2982966%" y2="0%" id="linearGradient-9">
            <stop stop-color="#AFDEF9" offset="3.15726754%"></stop>
            <stop stop-color="#7CC9F9" offset="100%"></stop>
        </linearGradient>
        <linearGradient x1="28.4038852%" y1="87.0084871%" x2="50%" y2="30.4810963%" id="linearGradient-10">
            <stop stop-color="#98D6FA" offset="0%"></stop>
            <stop stop-color="#47B0F1" offset="100%"></stop>
        </linearGradient>
        <linearGradient x1="80.1766865%" y1="78.1244605%" x2="40.1612594%" y2="1.20356745%" id="linearGradient-11">
            <stop stop-color="#98D6FA" offset="0%"></stop>
            <stop stop-color="#47B0F1" offset="100%"></stop>
        </linearGradient>
        <linearGradient x1="16.9636606%" y1="77.6033014%" x2="73.1106367%" y2="27.3104148%" id="linearGradient-12">
            <stop stop-color="#98D6FA" offset="0%"></stop>
            <stop stop-color="#47B0F1" offset="100%"></stop>
        </linearGradient>
        <linearGradient x1="0%" y1="66.879116%" x2="84.977599%" y2="36.1255675%" id="linearGradient-13">
            <stop stop-color="#98D6FA" offset="0%"></stop>
            <stop stop-color="#47B0F1" offset="100%"></stop>
        </linearGradient>
        <linearGradient x1="0%" y1="64.3617284%" x2="84.977599%" y2="38.1948302%" id="linearGradient-14">
            <stop stop-color="#98D6FA" offset="0%"></stop>
            <stop stop-color="#47B0F1" offset="100%"></stop>
        </linearGradient>
        <linearGradient x1="0%" y1="63.9354617%" x2="84.977599%" y2="38.5452163%" id="linearGradient-15">
            <stop stop-color="#98D6FA" offset="0%"></stop>
            <stop stop-color="#47B0F1" offset="100%"></stop>
        </linearGradient>
        <linearGradient x1="112.921805%" y1="29.5752808%" x2="-38.265255%" y2="76.0028082%" id="linearGradient-16">
            <stop stop-color="#B6DCF2" stop-opacity="0" offset="0%"></stop>
            <stop stop-color="#64AFDE" offset="100%"></stop>
        </linearGradient>
        <linearGradient x1="100%" y1="33.7905178%" x2="15.1713288%" y2="55.564096%" id="linearGradient-17">
            <stop stop-color="#98D6FA" offset="0%"></stop>
            <stop stop-color="#47B0F1" offset="100%"></stop>
        </linearGradient>
        <linearGradient x1="50.6283113%" y1="15.4516128%" x2="49.3716887%" y2="84.2354383%" id="linearGradient-18">
            <stop stop-color="#98D6FA" offset="0%"></stop>
            <stop stop-color="#47B0F1" offset="100%"></stop>
        </linearGradient>
        <linearGradient x1="51.6075535%" y1="26.8522341%" x2="58.4793322%" y2="90.1917121%" id="linearGradient-19">
            <stop stop-color="#98D6FA" offset="0%"></stop>
            <stop stop-color="#47B0F1" offset="100%"></stop>
        </linearGradient>
        <linearGradient x1="-17.1578035%" y1="26.4674105%" x2="65.0420497%" y2="63.350956%" id="linearGradient-20">
            <stop stop-color="#98D6FA" offset="0%"></stop>
            <stop stop-color="#47B0F1" offset="100%"></stop>
        </linearGradient>
        <linearGradient x1="-20.4060621%" y1="87.0084871%" x2="50%" y2="30.4810963%" id="linearGradient-21">
            <stop stop-color="#98D6FA" offset="0%"></stop>
            <stop stop-color="#47B0F1" offset="100%"></stop>
        </linearGradient>
        <linearGradient x1="-21.5967452%" y1="9.01894125%" x2="143.617622%" y2="117.899381%" id="linearGradient-22">
            <stop stop-color="#98D6FA" offset="0%"></stop>
            <stop stop-color="#47B0F1" offset="100%"></stop>
        </linearGradient>
        <linearGradient x1="-54.0805314%" y1="61.9729492%" x2="50%" y2="43.6852635%" id="linearGradient-23">
            <stop stop-color="#98D6FA" offset="0%"></stop>
            <stop stop-color="#47B0F1" offset="100%"></stop>
        </linearGradient>
        <linearGradient x1="116.912684%" y1="68.4291301%" x2="44.7712446%" y2="36.1646664%" id="linearGradient-24">
            <stop stop-color="#98D6FA" offset="0%"></stop>
            <stop stop-color="#47B0F1" offset="100%"></stop>
        </linearGradient>
        <linearGradient x1="0%" y1="-11.7647059%" x2="100%" y2="-11.7647059%" id="linearGradient-25">
            <stop stop-color="#F5DDA7" offset="0%"></stop>
            <stop stop-color="#FA9A41" offset="100%"></stop>
        </linearGradient>
        <linearGradient x1="13.965733%" y1="7.49141546%" x2="87.5196979%" y2="107.502359%" id="linearGradient-26">
            <stop stop-color="#FFB859" offset="0%"></stop>
            <stop stop-color="#F97B61" offset="100%"></stop>
        </linearGradient>
        <linearGradient x1="2.07516348%" y1="87.0084871%" x2="50%" y2="30.4810963%" id="linearGradient-27">
            <stop stop-color="#98D6FA" offset="0%"></stop>
            <stop stop-color="#47B0F1" offset="100%"></stop>
        </linearGradient>
        <linearGradient x1="100%" y1="-2.96987539%" x2="0.581465918%" y2="-2.96987539%" id="linearGradient-28">
            <stop stop-color="#F97B61" offset="0%"></stop>
            <stop stop-color="#FFB859" offset="100%"></stop>
        </linearGradient>
        <linearGradient x1="100%" y1="-2.96987539%" x2="0.581465918%" y2="-2.96987539%" id="linearGradient-29">
            <stop stop-color="#F97B61" offset="0%"></stop>
            <stop stop-color="#FFB859" offset="100%"></stop>
        </linearGradient>
        <linearGradient x1="100%" y1="-2.96987539%" x2="0.581465918%" y2="-2.96987539%" id="linearGradient-30">
            <stop stop-color="#FFB859" offset="0%"></stop>
            <stop stop-color="#F97B61" offset="100%"></stop>
        </linearGradient>
        <linearGradient x1="100%" y1="-2.96987539%" x2="0.581465918%" y2="-2.96987539%" id="linearGradient-31">
            <stop stop-color="#FFB859" offset="0%"></stop>
            <stop stop-color="#F97B61" offset="100%"></stop>
        </linearGradient>
        <linearGradient x1="86.2750219%" y1="-2.80504909%" x2="-2.70574742e-12%" y2="-2.80504909%" id="linearGradient-32">
            <stop stop-color="#1D181C" offset="0%"></stop>
            <stop stop-color="#2C2422" offset="30%"></stop>
            <stop stop-color="#42352C" offset="50%"></stop>
            <stop stop-color="#57352C" offset="70%"></stop>
            <stop stop-color="#923629" offset="100%"></stop>
        </linearGradient>
        <linearGradient x1="100%" y1="-14.2881979%" x2="7.10542736e-13%" y2="86.125%" id="linearGradient-33">
            <stop stop-color="#98D6FA" offset="0%"></stop>
            <stop stop-color="#47B0F1" offset="100%"></stop>
        </linearGradient>
        <linearGradient x1="39.4579091%" y1="-29.0831055%" x2="54.7449217%" y2="83.013039%" id="linearGradient-34">
            <stop stop-color="#98D6FA" offset="0%"></stop>
            <stop stop-color="#47B0F1" offset="100%"></stop>
        </linearGradient>
    </defs>
    <g id="暂无消息" stroke="none" stroke-width="1" fill="none" fill-rule="evenodd">
        <rect id="矩形" fill="#FFFFFF" opacity="0" x="0" y="0" width="1024" height="1024"></rect>
        <g id="背景" transform="translate(-10.925399, 125.000000)" fill-rule="nonzero">
            <path d="M87.7222308,456.766916 C80.0492274,423.67151 30.1022806,208.146339 171.323307,178.512529 C312.544333,148.878718 395.972947,183.393328 458.023811,123.051676 C520.074675,62.7100235 535.549093,72.613831 586.515601,76.6047879 C637.482109,80.5957448 696.551563,37.0388532 716.400276,23.9553401 C736.248989,10.871827 915.459428,-73.3066327 961.276528,178.512529 C968.517655,287.383698 974.535248,405.496594 923.838362,450.237259 C873.141476,494.977924 924.764528,535.151398 961.276528,539.615502 C997.788527,544.079607 944.206939,620.525811 859.876058,653.901824 C803.805493,679.056083 441.11611,751.180384 223.920174,677.040997 C119.040265,632.124956 95.3952341,489.862323 87.7222308,456.766916 Z" id="路径-58" fill="#47B0F1" opacity="0.05"></path>
            <path d="M168.925399,204 L168.925997,204.150149 C172.349059,204.845285 174.925399,207.871774 174.925399,211.5 L174.925399,212.5 C174.925399,216.642136 171.567535,220 167.425399,220 L88.4253989,220 C84.2832633,220 80.9253989,216.642136 80.9253989,212.5 L80.9253989,211.5 C80.9253989,207.357864 84.2832633,204 88.4253989,204 L119.925399,204 C123.710851,204 126.794498,200.995217 126.92134,197.24065 L126.925399,197 C126.925399,193.214548 123.920616,190.130901 120.166049,190.004059 L119.925399,190 L116.925399,190 L116.925805,189.850055 C113.502242,189.155307 110.925399,186.12858 110.925399,182.5 L110.925399,181.5 C110.925399,177.357864 114.283263,174 118.425399,174 L197.425399,174 C201.567535,174 204.925399,177.357864 204.925399,181.5 L204.925399,182.5 C204.925399,186.642136 201.567535,190 197.425399,190 L165.925399,190 C162.139947,190 159.0563,193.004783 158.929458,196.75935 L158.925399,197 C158.925399,200.785452 161.930182,203.869099 165.684749,203.995941 L165.925399,204 L168.925399,204 Z" id="形状结合" fill="url(#linearGradient-1)" opacity="0.100000001"></path>
            <path d="M868.925399,34 L868.925997,34.1501485 C872.349059,34.845285 874.925399,37.8717743 874.925399,41.5 L874.925399,42.5 C874.925399,46.6421356 871.567535,50 867.425399,50 L788.425399,50 C784.283263,50 780.925399,46.6421356 780.925399,42.5 L780.925399,41.5 C780.925399,37.3578644 784.283263,34 788.425399,34 L819.925399,34 C823.710851,34 826.794498,30.9952166 826.92134,27.2406498 L826.925399,27 C826.925399,23.2145483 823.920616,20.1309013 820.166049,20.004059 L819.925399,20 L816.925399,20 L816.925805,19.8500552 C813.502242,19.1553066 810.925399,16.1285803 810.925399,12.5 L810.925399,11.5 C810.925399,7.35786438 814.283263,4 818.425399,4 L897.425399,4 C901.567535,4 904.925399,7.35786438 904.925399,11.5 L904.925399,12.5 C904.925399,16.6421356 901.567535,20 897.425399,20 L865.925399,20 C862.139947,20 859.0563,23.0047834 858.929458,26.7593502 L858.925399,27 C858.925399,30.7854517 861.930182,33.8690987 865.684749,33.995941 L865.925399,34 L868.925399,34 Z" id="形状结合" fill="url(#linearGradient-1)" opacity="0.100000001"></path>
            <path d="M525.44197,587 C656.546603,587 774.70322,597.788312 857.228344,615.013362 C937.989145,615.660019 1002.9254,640.030791 1002.9254,670 C1002.9254,694.229977 960.47882,714.80045 901.536221,722.132354 C888.569443,725.884939 874.130297,729.433119 858.378638,732.745641 C858.740426,734.812004 858.925399,736.897944 858.925399,739 C858.925399,790.914766 746.101156,833 606.925399,833 C482.272656,833 378.758797,799.239705 358.512758,754.894193 C191.123049,742.128701 72.9253989,710.721174 72.9253989,674 C72.9253989,625.951227 275.292692,587 525.44197,587 Z" id="形状结合" fill="url(#linearGradient-2)"></path>
            <g id="大雁" transform="translate(660.099546, 36.907158)">
                <path d="M37.4312095,64.7423818 L37.4312095,64.6452119 C32.1058219,49.6073265 14.7356607,42.5306746 0,44.7153228 C10.9264423,37.9201286 28.9638433,36.1107574 37.4343421,46.5280447 L37.4343421,46.6185133 C45.8923106,36.2916945 64.0268216,38.0139479 74.8686842,44.8057914 C60.1455538,42.7216638 42.77226,49.7882636 37.4343421,64.7356804 L37.4312095,64.7423818 Z" id="路径" fill="url(#linearGradient-3)"></path>
                <path d="M120.860322,52.2014603 L120.860322,52.1377972 C117.160744,41.7138085 105.128501,36.8184542 94.9131541,38.3229128 C102.484602,33.6151969 114.989865,32.3586891 120.860322,39.5794206 L120.860322,39.6430837 C126.730779,32.4860153 139.292428,33.67886 146.80749,38.3865759 C136.592143,36.9424296 124.566165,41.8411347 120.860322,52.2014603 L120.860322,52.2014603 Z" id="路径" fill="url(#linearGradient-4)"></path>
                <path d="M86.0679846,17.7234613 L86.0679846,17.6597983 C82.3684066,7.23580958 70.3361632,2.34045519 60.1208168,3.84491386 C67.6922649,-0.862802022 80.197528,-2.11930982 86.0679846,5.10142166 L86.0679846,5.16508473 C91.9384413,-1.9919837 104.500091,-0.79913896 112.015152,3.90857693 C101.799806,2.46443063 89.7738279,7.3631357 86.0679846,17.7234613 L86.0679846,17.7234613 Z" id="路径" fill="url(#linearGradient-4)"></path>
                <path d="M191.548904,58.1616316 L191.548904,58.1180727 C188.986453,50.8939905 180.641257,47.4963934 173.561624,48.5418079 C178.81183,45.2782383 187.479681,44.4070596 191.548904,49.4129867 L191.548904,49.4565456 C195.621259,44.4941775 204.326702,45.3217973 209.536184,48.5853668 C202.456551,47.5801606 194.111355,50.9811084 191.548904,58.1616316 Z" id="路径" fill="url(#linearGradient-5)"></path>
            </g>
            <g id="绿植" transform="translate(0.000000, 469.157511)">
                <path d="M53.4579208,97.7847305 C18.7211621,88.9919949 5.51519106,98.6448032 13.8400076,126.743156 C17.2768648,135.307054 21.6179554,140.267707 26.8632792,141.625117 C42.2267921,154.803478 51.0916726,165.971312 53.4579208,175.128619 C57.0072929,188.86458 70.6197469,202.733737 96.1649191,188.931178 C113.195034,179.729472 127.390936,187.611424 138.752626,212.577035 C163.918858,236.006441 201.646652,240.485951 251.936008,226.015566 C302.225365,211.545181 294.797427,188.486591 229.652195,156.839796 C212.849853,153.406508 200.181906,151.689865 191.648355,151.689865 C183.114804,151.689865 177.463354,143.374295 174.694005,126.743156 C172.893304,116.34828 164.032796,110.087373 148.11248,107.960436 C132.192164,105.833499 124.547998,99.3505574 125.179981,88.5116107 C112.58823,75.545727 100.290346,75.545727 88.2863266,88.5116107 C76.2823076,101.477494 64.672839,104.568534 53.4579208,97.7847305 Z" id="路径-61" fill="url(#linearGradient-6)" transform="translate(148.112480, 156.545047) rotate(10.000000) translate(-148.112480, -156.545047)"></path>
                <path d="M128.357876,61.8772723 L139.708518,118.792492 C147.102266,107.926046 152.423641,98.4478044 155.672643,90.3577665 C160.484426,78.3763885 149.169419,111.841061 140.173455,121.127486 L149.63639,168.578733 C149.645965,168.513344 149.656389,168.449987 149.667663,168.388661 C162.67777,156.94852 170.895007,148.098659 174.319374,141.839075 C173.679437,146.283538 157.476925,166.540868 150.225374,171.539333 L158.930067,215.183483 C158.957143,214.862431 158.980375,214.651495 158.980375,214.651495 C158.980375,214.651495 170.424065,205.903486 174.319374,199.624769 C174.068987,202.241567 164.305398,213.580138 159.442775,217.757845 L166.625116,253.775222 L161.152021,253.775222 L154.642076,215.683175 C145.056775,213.216902 136.254724,205.490142 132.63269,201.122197 C140.695168,207.831691 147.787135,211.53314 153.908592,212.226545 C154.031116,213.306678 154.243439,214.271485 154.545563,215.120968 L136.214888,107.844899 C136.198618,108.140956 136.168439,108.434419 136.12435,108.725288 C125.50581,100.730628 117.714835,91.8155981 112.751425,81.9801986 C114.522037,81.3968589 119.762198,95.8303018 135.848668,105.71297 L128.357876,61.8772723 Z M103.238822,145.449865 C110.476935,153.117211 124.487041,158.514569 145.269141,161.641939 C145.199057,162.54413 145.199057,163.589954 145.269141,164.779412 C125.05606,162.407149 109.416656,153.794333 103.238822,145.449865 Z" id="形状结合" fill="url(#linearGradient-7)" transform="translate(138.779098, 157.826247) rotate(-45.000000) translate(-138.779098, -157.826247)"></path>
                <path d="M100.496525,13.1192019 C68.3285506,-8.77204952 53.4010573,-3.26680461 55.7140452,29.6349366 C61.9026183,53.2030454 65.9619965,68.9582926 63.9323074,83.4041721 C61.9026183,97.8500517 68.2472324,125.149784 100.496525,136.352578 C121.996053,143.821106 128.034527,154.418116 118.611946,168.143606 C113.881324,189.217665 139.9571,204.343139 196.839274,213.520027 C282.162536,227.285361 261.833383,195.652719 239.897382,161.364899 C224.027229,145.480093 221.903337,135.784371 221.903337,123.644346 C221.903337,111.504321 233.51901,91.6604587 200.14408,83.4041721 C185.486559,80.0715009 177.801522,65.4135325 177.088969,39.4302669 C174.782644,26.3698265 160.791703,23.1047164 135.116145,29.6349366 C123.694555,31.8301289 112.154681,26.324884 100.496525,13.1192019 Z" id="路径-65" fill="url(#linearGradient-8)"></path>
                <path d="M132.265793,14.8667685 L144.366738,70.8957685 L144.50287,70.7771673 C152.074817,64.0828933 156.911496,55.9518327 159.012906,46.3839853 L159.077738,46.0747685 L159.072047,46.1190409 C157.984672,53.6751711 158.206027,63.4270148 144.96281,73.6504051 L155.214738,121.128769 L155.507784,120.971226 C164.596231,115.963306 172.1694,107.249088 178.227291,94.8285717 C177.584791,99.2908322 168.96993,117.022913 155.89698,124.283812 L164.982203,166.350593 C167.636591,164.741196 174.635034,159.979484 178.227291,152.614266 C176.551091,158.07617 173.285119,164.909693 165.6606,169.489893 L179.068008,231.572551 L173.470997,228.842707 L161.516396,166.766296 C141.554906,165.760351 133.721891,158.288622 130.145364,153.975556 C138.030824,160.537738 148.268673,163.661789 160.858911,163.34771 L151.768386,116.140769 C151.776756,116.474589 151.791551,116.821578 151.812772,117.181736 C131.599691,114.809472 113.324572,106.78383 107.146738,98.4393607 C114.384851,106.106707 129.273529,111.308341 151.812772,114.044263 L151.353738,113.987769 L141.225572,61.3832515 C141.208927,61.565688 141.186929,61.7471264 141.159578,61.9275666 C128.078098,56.5155778 119.911352,47.5296205 116.659341,34.9696948 C118.427873,34.3870402 120.784183,50.1179685 140.745474,58.903355 L132.265793,14.8667685 Z" id="形状结合" fill="url(#linearGradient-9)" transform="translate(143.107373, 123.219660) rotate(-26.000000) translate(-143.107373, -123.219660)"></path>
                <path d="M210.126368,14.594686 C222.545375,-2.66511618 233.662578,-0.913530277 243.477977,19.8494437 C248.236888,37.7903021 240.72244,49.1966794 265.298493,57.3519642 C281.682529,62.7888208 284.161791,74.1716616 272.736279,91.5004868 C267.964121,102.404197 271.489923,109.373709 283.313684,112.409024 C295.137446,115.444338 293.715218,127.517382 279.046999,148.628157 C273.962442,160.201369 273.962442,167.934544 279.046999,171.827682 C286.673836,177.66739 301.328876,195.179148 283.313684,229.219126 C265.298493,263.259105 222.853604,236.822667 216.489986,220.818047 C210.126368,204.813427 222.853604,182.767143 216.489986,171.827682 C210.126368,160.888221 173.02471,157.12147 182.93685,124.310978 C191.186456,110.887444 202.671075,107.007173 191.140868,84.150088 C179.610661,61.2930028 176.683549,70.4768325 191.140868,47.9608957 C197.453469,41.4908822 203.781969,30.3688123 210.126368,14.594686 Z" id="路径-96" fill="url(#linearGradient-10)"></path>
                <path d="M227.031254,44.3491751 L238.381895,101.264395 C245.775644,90.397949 251.097019,80.9197072 254.34602,72.8296692 C259.157803,60.8482913 247.842797,94.3129634 238.846832,103.599388 L248.309767,151.050636 C248.319342,150.985247 248.329766,150.92189 248.34104,150.860564 C261.351147,139.420423 269.568384,130.570561 272.992752,124.310978 C272.352814,128.755441 256.150302,149.012771 248.898751,154.011236 L257.603444,197.655386 C257.63052,197.334334 257.653752,197.123397 257.653752,197.123397 C257.653752,197.123397 269.097442,188.375389 272.992752,182.096672 C272.742365,184.713469 262.978776,196.05204 258.116152,200.229748 L265.298493,236.247125 L259.825398,236.247125 L253.315454,198.155078 C243.730152,195.688804 234.928101,187.962045 231.306067,183.594099 C239.368545,190.303594 246.460512,194.005043 252.581969,194.698448 C252.704493,195.778581 252.916816,196.743388 253.21894,197.592871 L234.888265,90.3168021 C234.871996,90.6128587 234.841816,90.9063217 234.797727,91.1971908 C224.179187,83.2025307 216.388212,74.2875009 211.424802,64.4521014 C213.195414,63.8687616 218.435575,78.3022046 234.522045,88.1848725 L227.031254,44.3491751 Z M201.912199,127.921767 C209.150312,135.589113 223.160419,140.986472 243.942519,144.113842 C243.872435,145.016033 243.872435,146.061857 243.942519,147.251315 C223.729438,144.879052 208.090033,136.266236 201.912199,127.921767 Z" id="形状结合" fill="url(#linearGradient-7)"></path>
            </g>
            <g id="石头" transform="translate(906.925399, 613.000000)">
                <path d="M42.3959886,49.5164474 C45.3020221,27.3131416 37.8366926,15.351725 20,13.6321975 C44.1424324,11.3251757 60.1235326,26.0173187 60.3823024,49.5164474 C55.3770448,49.6908524 49.3816069,49.6908524 42.3959886,49.5164474 Z" id="路径-38" fill="url(#linearGradient-11)"></path>
                <path d="M54.120901,49.6472512 C58.8339305,27.2411086 53.0371808,10.6920249 36.7306519,0 C57.5522392,6.56657635 72.5106644,16.4351231 77.3732031,49.6472512 C71.0188781,50.1175829 63.2681108,50.1175829 54.120901,49.6472512 Z" id="路径-39" fill="url(#linearGradient-12)"></path>
                <path d="M81.0677818,50 C78.9833933,28.7044584 86.627466,16.502709 104,13.3947519 C87.886355,12.9867807 69.9112687,11.9056548 57.0519275,50 C67.9497157,49.6502805 75.9550005,49.6502805 81.0677818,50 Z" id="路径-40" fill="url(#linearGradient-13)"></path>
                <path d="M31.4123189,63.9990036 C48.2570038,63.9990036 61,64.4087768 61,48.6086537 C61,32.8085305 47.3446849,20 30.5,20 C13.6553151,20 0,32.8085305 0,48.6086537 C0,64.4087768 14.567634,63.9990036 31.4123189,63.9990036 Z" id="椭圆形" fill="url(#linearGradient-14)"></path>
                <path d="M64.5683298,63.9993886 C75.0617401,63.9993886 83,64.2508403 83,54.5553102 C83,44.8597801 74.4934102,37 64,37 C53.5065898,37 45,44.8597801 45,54.5553102 C45,64.2508403 54.0749196,63.9993886 64.5683298,63.9993886 Z" id="椭圆形备份-6" fill="url(#linearGradient-15)"></path>
            </g>
        </g>
        <g transform="translate(469.000000, 396.258429)">
            <g id="编组">
                <polygon id="路径" fill="url(#linearGradient-16)" opacity="0.100000001" transform="translate(324.310525, 382.043375) rotate(39.000000) translate(-324.310525, -382.043375)" points="189.492742 431.074144 407.637368 289.987951 468.341645 338.366221 180.279406 474.098798"></polygon>
                <path d="M150.384846,313.516335 C179.043523,313.516335 202.682131,319.123328 206.060315,326.361571 L206.474329,326.362057 L206.474329,347.497225 L206.468363,347.496335 L206.474329,347.657759 C206.474329,355.658001 181.861943,362.158626 151.312388,362.287838 L150.384846,362.289798 C119.40748,362.289798 94.2953629,355.738811 94.2953629,347.657759 C94.2953629,347.603997 94.2964744,347.550302 94.2986917,347.496677 L94.2953629,347.497225 L94.2953629,326.362057 L94.709377,326.361571 C98.0875614,319.123328 121.726169,313.516335 150.384846,313.516335 Z" id="形状结合" fill="url(#linearGradient-17)" fill-rule="nonzero"></path>
                <polygon id="路径" fill="url(#linearGradient-18)" fill-rule="nonzero" points="153.157156 324.230568 160.743305 330.910526 172.328571 324.230568 172.328571 159.888631 153.157156 159.888631"></polygon>
                <rect id="矩形" fill="url(#linearGradient-19)" fill-rule="nonzero" x="130.866992" y="164.341937" width="29.8669466" height="166.568589"></rect>
                <path d="M0,65.9201461 C0,29.5171815 32.8430394,0.00935568353 73.3605619,0.00935568353 L262.483986,0.00935568353 C306.968915,0.00935568353 343.040027,32.4080877 343.040027,72.3849234 L343.040027,177.271491 L0,177.271491 L0,65.9201461 Z" id="路径" fill="url(#linearGradient-20)" fill-rule="nonzero"></path>
                <path d="M271.396717,0 C231.133938,0 198.504135,32.6045571 198.504135,72.8152849 L198.504135,177.25278 L344.2893,177.25278 L344.2893,72.8152849 C344.2893,32.6045571 311.659497,0 271.396717,0 Z" id="路径" fill="url(#linearGradient-21)" fill-rule="nonzero"></path>
                <path d="M271.396717,11.1332634 C238.158149,11.1332634 211.203909,38.0495649 211.203909,71.2622414 L211.203909,166.568589 L331.580165,166.568589 L331.580165,71.2622414 C331.589526,38.0589206 304.635285,11.1332634 271.396717,11.1332634 Z" id="路径" fill="url(#linearGradient-22)" fill-rule="nonzero"></path>
                <path d="M331.589526,177.262136 C331.589526,177.262136 366.017527,199.14508 385.394984,212.991491 C403.695396,237.952455 397.57965,268.030977 353.57999,271.137064 C319.142623,271.361601 294.754561,262.352077 269.411207,239.365163 L211.213275,177.25278 L211.213275,166.568589 L331.589526,177.262136 Z" id="路径" fill="url(#linearGradient-23)" fill-rule="nonzero"></path>
                <path d="M379.569572,203.224158 C403.152191,223.002073 399.33102,253.370621 367.572219,258.357201 L360.669761,259.208568 C328.16171,261.556844 298.229205,251.125257 271.406083,225.032256 L211.213275,162.985363 L331.589526,162.985363 L379.569572,203.224158 Z" id="路径" fill="url(#linearGradient-24)" fill-rule="nonzero"></path>
            </g>
            <path d="M162.092564,152.40337 L130.548218,152.40337 C128.48346,152.40337 126.811005,149.493131 126.811005,145.900242 L126.811005,145.900242 C126.811005,142.307353 128.48346,139.397113 130.548218,139.397113 L162.092564,139.397113 C164.157322,139.397113 165.829776,142.307353 165.829776,145.900242 L165.829776,145.900242 C165.829776,149.493131 164.157322,152.40337 162.092564,152.40337 Z" id="路径" fill="#FFFFFF" fill-rule="nonzero"></path>
            <path d="M160.535392,118.261946 L115.847569,118.261946 C112.922494,118.261946 110.553184,115.351706 110.553184,111.758817 L110.553184,111.758817 C110.553184,108.165929 112.922494,105.255689 115.847569,105.255689 L160.535392,105.255689 C163.460466,105.255689 165.829776,108.165929 165.829776,111.758817 L165.829776,111.758817 C165.829776,115.351706 163.460466,118.261946 160.535392,118.261946 Z" id="路径" fill="#FFFFFF" fill-rule="nonzero"></path>
            <path d="M158.97822,84.1205214 L101.146919,84.1205214 C97.3615291,84.1205214 94.2953629,81.2102816 94.2953629,77.617393 C94.2953629,74.0245043 97.3615291,71.1142645 101.146919,71.1142645 L158.97822,71.1142645 C162.76361,71.1142645 165.829776,74.0245043 165.829776,77.617393 C165.829776,81.2102816 162.76361,84.1205214 158.97822,84.1205214 Z" id="路径" fill="#FFFFFF" fill-rule="nonzero"></path>
        </g>
        <path d="M555.335967,813.445064 C534.192322,823.475408 543.579582,826.386112 551.505822,829.422844 C566.059553,834.998727 560.910667,842.383656 554.883737,849.35794 C545.96371,859.680078 473.064991,891.792965 388.194585,885.124215 C309.053826,878.918195 316.324874,846.758489 334.105465,830.127443 C348.429584,816.762724 414.133696,781.785811 494.084079,776.110569 C542.194435,772.680926 563.805172,777.988706 568.662916,783.731997 C576.696879,793.245173 578.877346,802.271505 555.335967,813.445064 Z" id="路径" fill="url(#linearGradient-25)" fill-rule="nonzero" opacity="0.4" transform="translate(448.375527, 830.527261) scale(-1, 1) rotate(8.000000) translate(-448.375527, -830.527261)"></path>
        <g id="人物" transform="translate(371.058824, 620.935169)" fill-rule="nonzero">
            <path d="M81.6838325,18.0563019 C87.2678456,18.5827062 92.4393934,21.2505098 96.1336513,25.5104106 C97.2831743,26.7904762 98.2506152,28.2247661 99.008868,29.7718828 L99.0621017,29.8856706 L98.9124626,29.1172374 C100.66576,29.6181855 101.426625,32.7351963 101.487963,36.537532 L101.491029,36.8036735 C105.753418,35.6376551 108.791804,48.7105722 99.5214856,49.0527162 C99.1899886,49.9240204 98.8255808,50.6689685 98.436095,51.2391083 C96.0937822,54.6678491 93.5355215,59.0558209 89.9012379,61.7017182 L89.9331563,71.2931278 L70.9766168,71.5608068 L71.0583907,60.2973896 C69.5305801,59.0430663 68.2016596,57.5077668 67.154619,55.7276038 C65.7704602,53.6218925 64.6260233,51.381929 63.7332808,49.0501838 L64.1063967,49.0306098 C53.0464016,49.809453 56.7586613,34.5884082 61.4254768,36.9867216 C61.4175918,36.4767711 61.4222292,35.9632718 61.4382072,35.4492222 C61.8793911,31.2103702 63.5974289,27.2100125 66.3606729,23.9875282 C70.1813854,19.5722999 75.9185708,17.3515735 81.6838325,18.0563019 Z M99.4861017,32.0596706 L99.4923609,32.2109745 C99.5211546,32.9709314 99.5634984,33.7232888 99.9445925,34.40725 L99.4861017,32.0596706 Z M99.0621017,29.8856706 L99.4861017,32.0596706 L99.4815632,31.9257532 C99.4625085,31.4501864 99.4328678,30.9746196 99.3132466,30.5138957 L99.2300411,30.2393613 L99.0621017,29.8856706 Z" id="形状结合" fill="#EBB0B0"></path>
            <path d="M101.64614,38.6784945 C108.170032,32.3573899 110.542738,11.2405189 98.195008,5.90056109 C96.8145795,4.21287859 93.8790718,3.76514638 89.9331563,3.70738648 C87.0694298,3.63313649 86.746906,4.72906238 85.283241,4.47108745 C83.819576,4.21311252 81.6645752,0.739922121 76.095536,0.0526534754 C73.0821081,-0.377304736 63.9828525,1.89133818 62.0025999,4.47108745 C58.1209818,7.38783719 53.0754215,14.4861658 51.9473119,23.3892488 C50.7862164,32.3083623 55.3737269,36.7362307 59.195565,43.511293 C62.7255806,41.2755103 63.58656,36.1160118 66.0834003,32.7623378 C69.5448318,28.6924241 73.9075014,25.4833438 78.8258955,23.3892488 C89.4064965,21.8360011 94.4749207,21.8360011 99.2389512,31.4184089 C99.2389512,31.4184089 100.041347,33.8384374 101.64614,38.6784945 Z" id="路径" fill="#131322"></path>
            <path d="M71.4088604,63.5691333 C74.4092548,65.4401008 77.9364782,68.588218 81.3166823,68.6538661 C83.8731013,68.8016258 87.3611875,65.1117737 89.5906166,63.5691333 C99.8481551,64.0533796 118.444714,69.3085378 134.189887,81.3831934 C134.189887,128.071255 129.55311,136.39116 123.537624,162.670423 C123.372653,163.820457 106.341868,193.741189 103.080267,195.423421 C90.3046087,201.963336 80.4272077,200.740032 66.4317392,199.081291 C63.7038552,198.744844 48.137126,185.070756 46.091213,183.043871 C44.4530001,181.402669 36.2967358,163.441766 34.4435537,158.493541 C32.5903717,153.545316 29.7683855,144.603591 29.5534164,139.245065 C28.9826363,124.991223 28.025552,100.840483 27.8262507,82.9570479 C39.5658615,65.6902193 58.7034443,67.130634 71.4088604,63.5691333 Z" id="路径" fill="url(#linearGradient-26)"></path>
            <rect id="矩形" fill="url(#linearGradient-27)" x="63.9493794" y="74.1797302" width="31.0909091" height="45.8181818" rx="4"></rect>
            <path d="M54.45417,109.25509 C59.3793658,105.032103 64.2114311,102.211297 68.950366,100.792671 C72.8697823,100.774554 72.0660732,102.036807 70.0531809,102.626007 C72.02307,103.160281 81.1077297,105.066129 76.0587684,117.808887 C72.1380672,121.326772 62.6915014,125.971448 54.8423448,122.346637 C50.6778961,119.626455 50.5485045,115.262606 54.45417,109.25509 Z" id="路径-109" fill="#EFBA9E" transform="translate(64.592782, 112.227482) rotate(-31.000000) translate(-64.592782, -112.227482)"></path>
            <path d="M24.6301285,83.3977804 C31.8645677,74.6074922 38.8557736,73.7794452 45.6037459,80.9136394 C53.2634051,88.2867217 50.0624863,135.86665 45.6037459,165.268674 C35.2026175,178.001847 22.1971383,170.319465 18.7055467,159.795936 C11.1283184,127.363311 13.1031789,101.897259 24.6301285,83.3977804 Z" id="路径-2" fill="url(#linearGradient-28)"></path>
            <path d="M26.6635792,154.730767 C29.7267955,140.590476 38.6137699,127.699943 53.3245022,116.059167 C58.6419223,114.07328 64.6724945,115.970773 66.0982325,123.224432 C67.6117188,127.630969 59.8519208,162.855212 41.8532531,171.908078 C28.8966242,174.560771 23.8333995,168.835 26.6635792,154.730767 Z" id="路径-3" fill="url(#linearGradient-29)"></path>
            <path d="M85.705492,109.25509 C90.6306878,105.032103 95.4627531,102.211297 100.201688,100.792671 C104.121104,100.774554 103.317395,102.036807 101.304503,102.626007 C103.274392,103.160281 112.359052,105.066129 107.31009,117.808887 C103.389389,121.326772 93.9428235,125.971448 86.0936668,122.346637 C81.9292181,119.626455 81.7998265,115.262606 85.705492,109.25509 Z" id="路径-109" fill="#EFBA9E" transform="translate(95.844104, 112.227482) scale(-1, 1) rotate(-31.000000) translate(-95.844104, -112.227482)"></path>
            <path d="M120.644623,83.3977804 C127.879063,74.6074922 134.870268,73.7794452 141.618241,80.9136394 C149.2779,88.2867217 146.076981,135.86665 141.618241,165.268674 C131.217112,178.001847 118.211633,170.319465 114.720041,159.795936 C107.142813,127.363311 109.117674,101.897259 120.644623,83.3977804 Z" id="路径-2" fill="url(#linearGradient-30)" transform="translate(128.225690, 124.013761) scale(-1, 1) translate(-128.225690, -124.013761)"></path>
            <path d="M94.9149837,154.730767 C97.9782,140.590476 106.865174,127.699943 121.575907,116.059167 C126.893327,114.07328 132.923899,115.970773 134.349637,123.224432 C135.863123,127.630969 128.103325,162.855212 110.104658,171.908078 C97.1480287,174.560771 92.084804,168.835 94.9149837,154.730767 Z" id="路径-3" fill="url(#linearGradient-31)" transform="translate(114.344145, 143.929235) scale(-1, 1) translate(-114.344145, -143.929235)"></path>
            <path d="M135.179376,168.78392 C135.179376,168.78392 156.358901,159.959616 162.508288,179.202365 C167.930327,196.181229 149.812779,199.746399 149.812779,199.746399 L149.812779,199.746399 L136.1146,202.274496 L130.148984,221.271364 L81.7035971,212.32037 L33.218579,221.271364 L27.2451968,202.259092 L13.6921148,199.756076 C13.6921148,199.756076 -4.40508738,196.190907 1.01186606,179.221209 C7.1561663,159.987119 28.3102595,168.807349 28.3102595,168.807349 L81.6798984,183.056045 L135.179376,168.78392 Z" id="裤子" fill="url(#linearGradient-32)"></path>
            <path d="M28.5962761,207.052152 L22.7613889,207.431648 C20.9483372,207.527896 19.1312588,207.527896 17.3182071,207.431648 C13.5791992,207.275881 10.1098068,207.270425 10.1098068,207.270425 C10.1098068,207.270425 3.15067362,207.017426 1.7059413,209.006684 C-1.07160748,212.834392 0.378211938,220.61482 0.378211938,220.61482 C0.378211938,220.61482 1.25319067,223.834836 2.90649352,225.286845 C4.30035499,226.515621 6.85915906,225.59342 6.85915906,225.59342 C6.85915906,225.59342 11.4629716,224.390935 16.3720093,223.3467 C23.0259173,221.932888 25.8746853,221.461618 25.8746853,221.461618 L32.8745151,219.565126 L28.5962761,207.052152 Z M134.76884,207.052152 L140.63425,207.433136 C142.457467,207.529956 144.284737,207.529956 146.107955,207.433136 C149.867311,207.276873 153.357052,207.271417 153.357052,207.271417 C153.357052,207.271417 160.351795,207.017426 161.806701,209.015613 C164.599511,212.860188 163.139518,220.676828 163.139518,220.676828 C163.139518,220.676828 162.259451,223.910736 160.601062,225.36969 C159.197026,226.603427 156.628048,225.677752 156.628048,225.677752 C156.628048,225.677752 151.9988,224.469315 147.05924,223.420615 C140.369722,222.00085 137.505693,221.526604 137.505693,221.526604 L130.465167,219.622175 L134.76884,207.052152 Z" id="脚" fill="#333333"></path>
        </g>
        <polygon id="路径" fill="url(#linearGradient-33)" fill-rule="nonzero" transform="translate(749.360032, 335.600460) scale(-1, 1) rotate(24.000000) translate(-749.360032, -335.600460)" points="751.882717 345.572451 763.639413 349.730423 769.360032 318.60046 729.360032 337.808103 739.855673 341.85605 765.21602 323.016124 744.855287 343.769433 744.584985 352.60046"></polygon>
        <path d="M770.682096,353 C828.209758,390.425332 833.3685,436.293549 786.158322,490.604651" id="路径-26" stroke="url(#linearGradient-34)" stroke-dasharray="2" fill-rule="nonzero"></path>
    </g>
</svg>