<svg width="24" height="24" viewBox="0 0 24 24" xmlns="http://www.w3.org/2000/svg">
    <path d="m12 3.12 1.274.596 1.446.683c1.416.673 2.742 1.316 3.978 1.929l1.302.65v.772c0 5.586-2.4 10.696-7.33 12.35l-.67.21-.69-.217C6.4 18.446 4 13.336 4 7.75v-.773l1.302-.65 1.266-.622a299.237 299.237 0 0 1 4.158-1.989L12 3.121zm0 2.759-1.645.777-1.374.657c-.448.216-.886.428-1.314.637l-1.149.565.009.174c.238 4.136 2.06 7.706 5.31 8.938l.161.058.146-.051c3.268-1.238 5.09-4.809 5.33-8.945l.007-.174-.514-.254a270.194 270.194 0 0 0-3.322-1.605L12 5.88zm0 9.871v-8l1.148.54c.93.441 1.788.859 2.576 1.253C15.724 11.69 14.5 15 12 15.75z" fill="#9AA4AF" fill-rule="nonzero"/>
</svg>
